<mxfile host="app.diagrams.net" modified="2023-04-26T11:37:27.993Z" agent="Mozilla/5.0 (Windows NT 10.0; Win64; x64) AppleWebKit/537.36 (KHTML, like Gecko) Chrome/112.0.0.0 Safari/537.36" etag="_oygoWE2WB_--m1PNIyN" version="21.2.2" type="github">
  <diagram name="Page-1" id="SHoy8_nxIygTcBHp7UH4">
    <mxGraphModel dx="880" dy="452" grid="1" gridSize="10" guides="1" tooltips="1" connect="1" arrows="1" fold="1" page="1" pageScale="1" pageWidth="827" pageHeight="1169" math="0" shadow="0">
      <root>
        <mxCell id="0" />
        <mxCell id="1" parent="0" />
        <mxCell id="HxIWHDCGIG-U7nqKy6Yv-1" value="" style="rounded=0;whiteSpace=wrap;html=1;" vertex="1" parent="1">
          <mxGeometry x="20" y="30" width="760" height="410" as="geometry" />
        </mxCell>
        <mxCell id="HxIWHDCGIG-U7nqKy6Yv-2" value="navigation bar" style="rounded=1;whiteSpace=wrap;html=1;" vertex="1" parent="1">
          <mxGeometry x="40" y="40" width="100" height="390" as="geometry" />
        </mxCell>
        <mxCell id="HxIWHDCGIG-U7nqKy6Yv-4" value="overview" style="whiteSpace=wrap;html=1;" vertex="1" parent="1">
          <mxGeometry x="221" y="40" width="180" height="20" as="geometry" />
        </mxCell>
        <mxCell id="HxIWHDCGIG-U7nqKy6Yv-9" value="previous/next" style="text;strokeColor=none;align=center;fillColor=none;html=1;verticalAlign=middle;whiteSpace=wrap;rounded=0;" vertex="1" parent="1">
          <mxGeometry x="60" y="390" width="60" height="30" as="geometry" />
        </mxCell>
        <mxCell id="HxIWHDCGIG-U7nqKy6Yv-10" value="" style="rounded=1;whiteSpace=wrap;html=1;" vertex="1" parent="1">
          <mxGeometry x="160" y="70" width="100" height="60" as="geometry" />
        </mxCell>
        <mxCell id="HxIWHDCGIG-U7nqKy6Yv-11" value="" style="rounded=1;whiteSpace=wrap;html=1;" vertex="1" parent="1">
          <mxGeometry x="270" y="70" width="99" height="60" as="geometry" />
        </mxCell>
        <mxCell id="HxIWHDCGIG-U7nqKy6Yv-15" value="" style="rounded=1;whiteSpace=wrap;html=1;" vertex="1" parent="1">
          <mxGeometry x="380" y="70" width="100" height="60" as="geometry" />
        </mxCell>
        <mxCell id="HxIWHDCGIG-U7nqKy6Yv-17" value="" style="rounded=1;whiteSpace=wrap;html=1;" vertex="1" parent="1">
          <mxGeometry x="600" y="40" width="160" height="260" as="geometry" />
        </mxCell>
        <mxCell id="HxIWHDCGIG-U7nqKy6Yv-18" value="" style="rounded=1;whiteSpace=wrap;html=1;" vertex="1" parent="1">
          <mxGeometry x="160" y="310" width="600" height="110" as="geometry" />
        </mxCell>
        <mxCell id="HxIWHDCGIG-U7nqKy6Yv-20" value="" style="rounded=1;whiteSpace=wrap;html=1;" vertex="1" parent="1">
          <mxGeometry x="160" y="150" width="410" height="130" as="geometry" />
        </mxCell>
        <mxCell id="HxIWHDCGIG-U7nqKy6Yv-21" value="" style="rounded=0;whiteSpace=wrap;html=1;" vertex="1" parent="1">
          <mxGeometry x="20" y="470" width="770" height="410" as="geometry" />
        </mxCell>
        <mxCell id="HxIWHDCGIG-U7nqKy6Yv-23" value="navigation bar" style="rounded=1;whiteSpace=wrap;html=1;" vertex="1" parent="1">
          <mxGeometry x="30" y="480" width="60" height="390" as="geometry" />
        </mxCell>
        <mxCell id="HxIWHDCGIG-U7nqKy6Yv-24" value="" style="rounded=1;whiteSpace=wrap;html=1;" vertex="1" parent="1">
          <mxGeometry x="115" y="520" width="630" height="190" as="geometry" />
        </mxCell>
        <mxCell id="HxIWHDCGIG-U7nqKy6Yv-25" value="" style="rounded=1;whiteSpace=wrap;html=1;" vertex="1" parent="1">
          <mxGeometry x="118" y="730" width="342" height="140" as="geometry" />
        </mxCell>
        <mxCell id="HxIWHDCGIG-U7nqKy6Yv-26" value="" style="rounded=1;whiteSpace=wrap;html=1;" vertex="1" parent="1">
          <mxGeometry x="490" y="730" width="251" height="140" as="geometry" />
        </mxCell>
        <mxCell id="HxIWHDCGIG-U7nqKy6Yv-36" value="" style="endArrow=none;html=1;rounded=0;dashed=1;dashPattern=1 2;strokeColor=#F0F0F0;" edge="1" parent="1">
          <mxGeometry relative="1" as="geometry">
            <mxPoint x="560" y="570" as="sourcePoint" />
            <mxPoint x="720" y="570" as="targetPoint" />
          </mxGeometry>
        </mxCell>
        <mxCell id="HxIWHDCGIG-U7nqKy6Yv-38" value="" style="endArrow=none;html=1;rounded=0;dashed=1;dashPattern=1 2;strokeColor=#EDEDED;" edge="1" parent="1">
          <mxGeometry relative="1" as="geometry">
            <mxPoint x="560" y="630" as="sourcePoint" />
            <mxPoint x="720" y="630" as="targetPoint" />
          </mxGeometry>
        </mxCell>
        <mxCell id="HxIWHDCGIG-U7nqKy6Yv-27" value="" style="line;strokeWidth=2;direction=south;html=1;strokeColor=#F2F2F2;" vertex="1" parent="1">
          <mxGeometry x="540" y="530" width="10" height="160" as="geometry" />
        </mxCell>
        <mxCell id="HxIWHDCGIG-U7nqKy6Yv-40" value="" style="rounded=0;whiteSpace=wrap;html=1;" vertex="1" parent="1">
          <mxGeometry x="160" y="480" width="180" height="20" as="geometry" />
        </mxCell>
      </root>
    </mxGraphModel>
  </diagram>
</mxfile>
